<svg width="24" height="24" viewBox="0 0 24 24" fill="none" xmlns="http://www.w3.org/2000/svg">
    <g clip-path="url(#bi70mw8j5a)">
        <mask id="5o38qhey1b" style="mask-type:luminance" maskUnits="userSpaceOnUse" x="0" y="0" width="24" height="24">
            <path d="M23.5 12c0 6.351-5.149 11.5-11.5 11.5S.5 18.351.5 12 5.649.5 12 .5 23.5 5.649 23.5 12z" fill="#fff" stroke="#fff"/>
        </mask>
        <g mask="url(#5o38qhey1b)">
            <path d="m.847 1.196.059-.168L.845.86.714.5H3.05l2.414 1.43.255.151.255-.15L8.387.5h1.212l2.124 1.416.277.185.277-.185L14.401.5h1.212l2.413 1.43.255.151.255-.15L20.95.5h.857l.998.347.169.059.167-.061.36-.131V3.05l-1.43 2.414-.151.255.15.255L23.5 8.387v1.212l-1.416 2.124-.185.277.185.277 1.416 2.124v1.212l-1.43 2.413-.151.255.15.255L23.5 20.95v.857l-.347.998-.059.169.061.167.131.36H20.95l-2.413-1.43-.255-.151-.255.15-2.413 1.431h-1.212l-2.124-1.416-.277-.185-.277.185L9.599 23.5H8.387l-2.413-1.43-.255-.151-.255.15L3.05 23.5h-.856l-.998-.347-.168-.059-.168.061-.36.131V20.95l1.43-2.413.151-.255-.15-.255L.5 15.613v-1.212l1.416-2.124.185-.277-.185-.277L.5 9.599V8.387l1.43-2.413.151-.255-.15-.255L.5 3.05v-.856l.347-.998z" fill="#EEE" stroke="#fff"/>
            <path d="M15.75 0v5.063L20.813 0H15.75zM24 3.188 18.937 8.25H24V3.187zM0 8.25h5.063L0 3.187V8.25zM3.188 0 8.25 5.063V0H3.187zM8.25 24v-5.063L3.187 24H8.25zM0 20.812l5.063-5.062H0v5.063zm24-5.062h-5.063L24 20.813V15.75zM20.812 24l-5.062-5.063V24h5.063z" fill="#0052B4"/>
            <path d="M0 0v2.11l6.14 6.14h2.11L0 0zm9.75 0v9.75H0v4.5h9.75V24h4.5v-9.75H24v-4.5h-9.75V0h-4.5zm12.14 0-6.14 6.14v2.11L24 0h-2.11zM8.25 15.75 0 24h2.11l6.14-6.14v-2.11zm7.5 0L24 24v-2.11l-6.14-6.14h-2.11z" fill="#D80027"/>
        </g>
    </g>
    <defs>
        <clipPath id="bi70mw8j5a">
            <path fill="#fff" d="M0 0h24v24H0z"/>
        </clipPath>
    </defs>
</svg>
