<svg width="24" height="24" viewBox="0 0 24 24" fill="none" xmlns="http://www.w3.org/2000/svg">
    <path d="M18.375 0H5.625A5.625 5.625 0 0 0 0 5.625v12.75A5.625 5.625 0 0 0 5.625 24h12.75A5.625 5.625 0 0 0 24 18.375V5.625A5.625 5.625 0 0 0 18.375 0z" fill="#242938"/>
    <path d="M12 2.813a9.375 9.375 0 0 0-2.964 18.27c.469.087.64-.203.64-.45 0-.224-.008-.962-.012-1.746-2.608.567-3.158-1.106-3.158-1.106-.427-1.084-1.041-1.372-1.041-1.372-.851-.582.064-.57.064-.57.941.066 1.437.966 1.437.966.836 1.434 2.193 1.02 2.728.78.084-.606.327-1.02.595-1.254-2.082-.237-4.271-1.04-4.271-4.633 0-1.024.366-1.86.966-2.517-.098-.236-.418-1.19.09-2.48 0 0 .788-.252 2.58.96A8.989 8.989 0 0 1 12 7.346c.797.004 1.6.108 2.349.316 1.789-1.213 2.575-.961 2.575-.961.51 1.29.19 2.244.092 2.48.601.657.965 1.493.965 2.517 0 3.6-2.193 4.394-4.28 4.626.335.29.635.861.635 1.736 0 1.254-.01 2.264-.01 2.573 0 .25.168.541.643.45a9.376 9.376 0 0 0 6.406-8.895A9.375 9.375 0 0 0 12 2.812zM6.136 16.166c-.02.047-.094.061-.16.03-.068-.031-.107-.095-.085-.142.02-.048.094-.061.162-.029.068.03.107.095.083.142zm.461.412c-.044.041-.132.022-.191-.043-.061-.066-.073-.153-.027-.195.046-.042.13-.022.192.043.061.066.073.153.026.195zm.317.526c-.058.04-.152.003-.21-.08-.057-.084-.057-.184.002-.224.058-.04.15-.004.21.079.056.085.056.185-.002.225zm.535.61c-.052.057-.161.042-.241-.036-.082-.075-.105-.182-.053-.24.052-.056.162-.04.242.037.082.075.107.183.052.24zm.691.206c-.022.073-.128.107-.234.076-.106-.032-.175-.119-.154-.193.022-.074.128-.108.235-.075.106.032.175.117.153.192zm.787.087c.003.078-.087.142-.199.143-.112.003-.202-.06-.204-.136 0-.078.088-.142.2-.143.112-.003.203.06.203.136zm.773-.03c.014.076-.064.154-.174.174-.11.02-.21-.027-.224-.101-.013-.078.066-.155.174-.175.111-.02.21.026.224.103z" fill="#fff"/>
</svg>
