<svg width="60" height="60" viewBox="0 0 60 60" fill="none" xmlns="http://www.w3.org/2000/svg">
    <g clip-path="url(#jg3esf7dza)">
        <path d="M45.938 0H14.061C6.296 0 0 6.296 0 14.063v31.874C0 53.705 6.296 60 14.063 60h31.874C53.705 60 60 53.704 60 45.937V14.064C60 6.295 53.704 0 45.937 0z" fill="#F4F2ED"/>
        <path d="M30 7.031c-12.942 0-23.438 10.493-23.438 23.438 0 10.355 6.716 19.14 16.029 22.24 1.17.217 1.601-.509 1.601-1.128 0-.559-.022-2.405-.032-4.363-6.52 1.418-7.896-2.766-7.896-2.766-1.066-2.709-2.602-3.429-2.602-3.429-2.127-1.455.16-1.425.16-1.425 2.353.166 3.593 2.416 3.593 2.416 2.09 3.583 5.483 2.547 6.82 1.948.21-1.515.818-2.549 1.488-3.134-5.206-.593-10.678-2.603-10.678-11.583 0-2.56.915-4.65 2.415-6.291-.244-.59-1.046-2.974.227-6.203 0 0 1.968-.63 6.447 2.403 1.87-.52 3.874-.78 5.866-.789 1.992.01 3.999.27 5.872.789 4.473-3.033 6.438-2.402 6.438-2.402 1.276 3.228.474 5.612.23 6.202 1.503 1.641 2.412 3.732 2.412 6.29 0 9.003-5.483 10.985-10.702 11.565.841.728 1.59 2.154 1.59 4.34 0 3.136-.027 5.66-.027 6.432 0 .624.422 1.355 1.61 1.125 9.307-3.103 16.014-11.885 16.014-22.237C53.438 17.524 42.944 7.031 30 7.031zM15.34 40.42c-.05.116-.234.151-.4.071-.171-.076-.266-.235-.211-.352.05-.12.234-.153.403-.073.17.077.268.237.209.354zm1.154 1.028c-.112.104-.33.056-.479-.108-.153-.163-.182-.382-.069-.487.115-.104.328-.055.481.108.153.166.183.383.067.487zm.79 1.317c-.143.1-.378.006-.523-.203-.144-.208-.144-.458.003-.558.146-.1.377-.01.524.197.143.212.143.462-.003.564zm1.338 1.524c-.128.142-.402.104-.602-.09-.205-.189-.262-.457-.133-.599.13-.142.405-.102.607.09.203.189.265.459.128.599zm1.729.514c-.057.184-.32.268-.586.19-.265-.08-.438-.296-.385-.481.055-.185.32-.272.587-.189.265.08.439.294.384.48zm1.967.219c.007.193-.218.353-.497.357-.28.006-.507-.15-.51-.34 0-.196.22-.354.5-.36.28-.005.507.15.507.343zm1.933-.074c.033.188-.16.382-.437.434-.272.05-.524-.067-.559-.254-.033-.194.164-.387.435-.437.278-.048.526.065.56.257z" fill="#1E1E1E"/>
    </g>
    <defs>
        <clipPath id="jg3esf7dza">
            <path fill="#fff" d="M0 0h60v60H0z"/>
        </clipPath>
    </defs>
</svg>
