<svg width="329" height="60" viewBox="0 0 329 60" fill="none" xmlns="http://www.w3.org/2000/svg">
    <g clip-path="url(#qacifq1a4a)" fill="#FEFEFE">
        <path d="m217.185 32.942 4.016-2.249v.765l-3.282 1.85 3.282 1.873v.765l-4.016-2.27v-.735.001zm107.203 2.239 3.281-1.84-3.281-1.883v-.765l4.015 2.27v.734l-4.015 2.25v-.766zm-101.597.356c.307.077.603.137.886.178.283.042.589.063.917.063.623 0 1.079-.114 1.369-.342.29-.23.434-.538.434-.927a1.31 1.31 0 0 0-.068-.45.958.958 0 0 0-.262-.368 2.644 2.644 0 0 0-.534-.362c-.228-.122-.523-.27-.886-.446a13.635 13.635 0 0 1-.949-.477 2.729 2.729 0 0 1-.613-.451 1.321 1.321 0 0 1-.325-.53 2.235 2.235 0 0 1-.095-.691c0-.273.049-.522.147-.745.098-.224.25-.414.453-.572.202-.157.463-.281.778-.373.314-.09.693-.136 1.136-.136a5.614 5.614 0 0 1 1.659.24l-.104.64a9.302 9.302 0 0 0-.741-.152 5.356 5.356 0 0 0-.837-.057c-.309 0-.569.026-.778.078a1.5 1.5 0 0 0-.52.223.871.871 0 0 0-.301.348 1.053 1.053 0 0 0-.094.442c0 .16.021.303.063.425.042.123.126.24.253.357.126.115.297.233.515.356.218.122.505.263.863.425.398.189.729.356.987.503.26.147.471.3.631.461.162.16.276.339.342.535.067.196.1.426.1.693 0 .307-.056.587-.168.838a1.658 1.658 0 0 1-.495.635 2.42 2.42 0 0 1-.82.403 4.095 4.095 0 0 1-1.155.147c-.337 0-.655-.024-.958-.072a7.721 7.721 0 0 1-.914-.2l.084-.64zm10.01-1.803c0 .538-.054.984-.163 1.337-.108.353-.26.632-.46.838-.199.206-.44.352-.721.435a3.378 3.378 0 0 1-.958.126 3.43 3.43 0 0 1-.953-.12 1.568 1.568 0 0 1-.706-.42c-.191-.199-.339-.473-.444-.823-.105-.35-.157-.793-.157-1.332 0-.545.054-.992.162-1.342.108-.349.26-.628.459-.834.2-.206.441-.351.723-.435.282-.083.597-.126.946-.126.357 0 .674.038.953.115.278.077.515.217.711.42.196.202.345.477.45.823.104.346.158.791.158 1.337zm-.818.032c0-.44-.033-.795-.1-1.064-.066-.27-.164-.48-.29-.63a.925.925 0 0 0-.463-.304 2.248 2.248 0 0 0-.62-.078 2.21 2.21 0 0 0-.61.078.912.912 0 0 0-.458.3c-.122.146-.218.354-.284.623-.067.27-.1.621-.1 1.054 0 .434.033.787.1 1.06.066.273.164.484.289.634.126.15.278.252.458.304.178.052.384.079.615.079.232 0 .439-.027.621-.079a.911.911 0 0 0 .458-.299c.124-.147.218-.355.284-.624.067-.27.1-.621.1-1.054zm3.466-1.95h-1.667v-.63h1.667v-.849c0-.321.043-.6.126-.838.084-.238.21-.435.378-.592.168-.157.379-.275.634-.352a3.16 3.16 0 0 1 .907-.115c.203 0 .394.009.572.027.178.017.348.043.508.078l-.094.62a3.457 3.457 0 0 0-.447-.058 7.505 7.505 0 0 0-.512-.016c-.414 0-.727.094-.937.283-.211.189-.316.496-.316.923v.891h2.181v.63h-2.181v4.508h-.818v-4.509l-.001-.002zm5.386-.63v-1.73l.817-.126v1.856h2.412v.63h-2.412v2.872c0 .188.018.351.053.487a.653.653 0 0 0 .196.336.88.88 0 0 0 .379.194c.158.042.354.063.594.063.274 0 .511-.023.711-.068a5.06 5.06 0 0 0 .457-.12l.084.607a6.6 6.6 0 0 1-.561.142 4.131 4.131 0 0 1-.865.079 3.67 3.67 0 0 1-.881-.09 1.353 1.353 0 0 1-.576-.283 1.077 1.077 0 0 1-.315-.477 2.158 2.158 0 0 1-.094-.671v-3.072h-1.468v-.63h1.468l.001.001zm3.771 0h.796l.532 3.01a17.418 17.418 0 0 1 .218 1.489h.032c.035-.175.068-.332.099-.472.031-.14.065-.294.1-.462l.556-2.443h.964l.556 2.443c.042.154.077.301.105.44.028.14.059.304.094.494h.032c.034-.266.068-.516.099-.75.033-.234.074-.48.123-.74l.538-3.009h.776l-.989 5.138h-1.071l-.556-2.443c-.028-.14-.059-.282-.094-.425a6.535 6.535 0 0 1-.094-.466h-.031a15.686 15.686 0 0 1-.179.892l-.555 2.443h-1.068l-.982-5.138h-.001zm9.569 1.51c0-.321-.097-.562-.288-.722-.192-.162-.491-.241-.897-.241a6.73 6.73 0 0 0-1.583.188l-.074-.619a7.396 7.396 0 0 1 1.793-.22c.329 0 .612.033.849.1.238.067.432.166.582.3.151.132.26.296.33.492.071.196.105.424.105.682v3.67h-.681l-.053-.493c-.294.16-.595.3-.907.42-.311.118-.641.178-.991.178-.461 0-.838-.12-1.132-.357-.294-.237-.441-.608-.441-1.111 0-.273.044-.512.131-.718.087-.206.237-.383.451-.53.213-.147.495-.257.844-.33.349-.074.782-.11 1.3-.11h.661v-.577l.001-.002zm-.63 1.154c-.398 0-.725.021-.98.063-.255.042-.46.106-.613.194a.733.733 0 0 0-.321.33c-.06.134-.089.287-.089.461 0 .322.087.553.262.692.175.14.413.21.713.21.286 0 .555-.046.807-.138.252-.093.535-.229.849-.407V33.85h-.629.001zm5.008-1.971a5.48 5.48 0 0 1 .871-.613c.273-.15.562-.226.87-.226.181 0 .346.015.493.047.147.032.294.082.44.152l-.178.786a1.673 1.673 0 0 0-.404-.178 1.761 1.761 0 0 0-.498-.064c-.119 0-.234.016-.346.048a1.88 1.88 0 0 0-.352.142c-.122.062-.25.14-.382.23-.133.09-.283.2-.451.325v3.167h1.761v.63h-4.015v-.63h1.436v-3.88h-1.373v-.629h2.065l.063.692zm7.713 4.299a6.497 6.497 0 0 1-1.825.252c-.357 0-.68-.035-.97-.105-.289-.07-.536-.2-.739-.388-.202-.189-.358-.456-.466-.802-.108-.346-.162-.8-.162-1.358 0-.545.056-.993.168-1.342.111-.35.27-.628.477-.834.206-.206.453-.351.739-.435.287-.084.605-.126.954-.126.328 0 .619.037.871.11.251.074.464.2.639.378s.304.42.388.728c.084.308.126.699.126 1.174v.236c0 .074-.003.159-.011.257h-3.533c0 .405.037.73.11.974.074.245.182.432.322.561.14.13.312.216.521.257.206.042.447.063.72.063.309 0 .588-.021.842-.063.251-.042.5-.095.746-.157l.084.62h-.001zm-.566-2.831c0-.342-.029-.623-.089-.839a1.191 1.191 0 0 0-.26-.508.854.854 0 0 0-.41-.252 2.002 2.002 0 0 0-.547-.069c-.21 0-.406.025-.584.074a1.022 1.022 0 0 0-.458.263 1.3 1.3 0 0 0-.3.508 2.896 2.896 0 0 0-.131.824h2.778l.001-.001zm2.282-4.31h4.057v.671h-3.24v2.516h2.999v.65h-2.999v2.779h3.24v.671h-4.057v-7.287zm5.511 2.15h.671l.063.546c.279-.19.577-.345.892-.467.314-.123.639-.184.974-.184.483 0 .857.133 1.122.4.266.265.399.698.399 1.299v3.544h-.818v-3.407c0-.441-.085-.745-.257-.912-.171-.169-.393-.252-.665-.252-.252 0-.509.052-.771.157a3.56 3.56 0 0 0-.791.451v3.964h-.818v-5.138h-.001zm10.282.535-.943.073c.098.105.178.238.241.399.063.161.094.38.094.66 0 .657-.173 1.127-.519 1.41-.346.284-.864.426-1.557.426-.209 0-.378-.012-.503-.036a1.488 1.488 0 0 1-.346-.11.906.906 0 0 0-.241.225.416.416 0 0 0-.073.236.41.41 0 0 0 .026.152c.018.046.054.09.11.136.056.045.137.09.241.13a2.4 2.4 0 0 0 .419.116c.294.063.589.12.886.173.298.052.558.103.782.152.196.042.367.096.514.162a.977.977 0 0 1 .561.588c.045.129.068.281.068.456 0 .237-.043.456-.131.655-.087.2-.229.371-.424.514a2.295 2.295 0 0 1-.766.341 4.506 4.506 0 0 1-1.142.126 4.96 4.96 0 0 1-1.086-.1 2.049 2.049 0 0 1-.708-.288 1.076 1.076 0 0 1-.388-.46 1.543 1.543 0 0 1-.115-.609 1.254 1.254 0 0 1 .303-.839 1.57 1.57 0 0 1 .309-.272c.115-.077.233-.144.352-.2a1.174 1.174 0 0 1-.451-.315.743.743 0 0 1-.157-.493.78.78 0 0 1 .136-.451c.091-.133.213-.255.368-.368a1.502 1.502 0 0 1-.414-.53c-.108-.219-.162-.524-.162-.916 0-.65.173-1.117.518-1.4.347-.283.862-.425 1.547-.425.23 0 .432.015.603.042.171.028.316.063.435.105h1.615v.535h-.002zm-1.793 4.708a52.412 52.412 0 0 0-.703-.131 98.202 98.202 0 0 1-.817-.152 2.1 2.1 0 0 0-.63.382c-.174.157-.262.373-.262.645 0 .147.023.278.068.393a.651.651 0 0 0 .241.294c.115.08.271.143.466.189.196.045.448.068.755.068.314 0 .577-.028.787-.084.209-.055.377-.127.503-.215a.737.737 0 0 0 .268-.314.945.945 0 0 0 .078-.373c0-.195-.059-.348-.178-.456-.119-.108-.311-.19-.577-.246h.001zm.389-3.566c0-.23-.025-.426-.074-.586a.833.833 0 0 0-.23-.383.941.941 0 0 0-.399-.204 2.25 2.25 0 0 0-.566-.064c-.224 0-.414.02-.572.058a.828.828 0 0 0-.388.204.837.837 0 0 0-.22.378c-.046.153-.068.35-.068.587s.022.434.068.593a.892.892 0 0 0 .22.387.8.8 0 0 0 .393.21c.161.039.353.057.577.057.216 0 .405-.018.566-.057a.839.839 0 0 0 .393-.205.89.89 0 0 0 .225-.382 2.02 2.02 0 0 0 .074-.593h.001zm2.208 2.832h2.097v-3.88h-2.044v-.629h2.862v4.509h1.573v.629h-4.488v-.63zm3.072-6.228c0 .104-.007.192-.021.262a.305.305 0 0 1-.089.168.388.388 0 0 1-.184.089 1.28 1.28 0 0 1-.283.026c-.119 0-.214-.008-.288-.026a.428.428 0 0 1-.183-.089.294.294 0 0 1-.095-.168 1.37 1.37 0 0 1-.021-.262c0-.105.007-.191.021-.257a.322.322 0 0 1 .095-.168.393.393 0 0 1 .183-.094c.074-.018.17-.026.288-.026.112 0 .206.009.283.026a.374.374 0 0 1 .184.094.33.33 0 0 1 .089.168c.014.066.021.152.021.257zm2.722 1.72h.672l.062.545a4.5 4.5 0 0 1 .892-.467c.314-.123.64-.184.975-.184.482 0 .856.133 1.122.4.266.265.398.698.398 1.299v3.544h-.817v-3.407c0-.441-.086-.745-.257-.912a.912.912 0 0 0-.666-.252c-.251 0-.508.052-.77.157a3.538 3.538 0 0 0-.791.451v3.964h-.818v-5.138h-.002zm9.654 4.99a6.478 6.478 0 0 1-1.826.252c-.356 0-.68-.035-.969-.105-.29-.07-.537-.2-.739-.388-.203-.189-.358-.456-.467-.802-.108-.346-.162-.8-.162-1.358 0-.545.056-.993.168-1.342.112-.35.271-.628.478-.834.206-.206.452-.351.739-.435.286-.084.604-.126.953-.126.329 0 .619.037.871.11.252.074.465.2.639.378.175.178.304.42.389.728.083.308.126.699.126 1.174v.236c0 .074-.004.159-.011.257h-3.533c0 .405.036.73.109.974.074.245.182.432.322.561.14.13.313.216.521.257.206.042.447.063.72.063.309 0 .589-.021.842-.063a9.3 9.3 0 0 0 .747-.157l.083.62zm-.566-2.831c0-.342-.03-.623-.09-.839a1.19 1.19 0 0 0-.259-.508.862.862 0 0 0-.411-.252 2.002 2.002 0 0 0-.547-.069c-.209 0-.405.025-.584.074a1.013 1.013 0 0 0-.457.263 1.3 1.3 0 0 0-.301.508 2.932 2.932 0 0 0-.131.824h2.779l.001-.001zm6.192 2.831a6.497 6.497 0 0 1-1.825.252c-.356 0-.68-.035-.969-.105-.29-.07-.537-.2-.739-.388-.203-.189-.359-.456-.467-.802-.108-.346-.162-.8-.162-1.358 0-.545.056-.993.168-1.342.112-.35.27-.628.477-.834.206-.206.453-.351.739-.435.287-.084.605-.126.954-.126.329 0 .619.037.871.11.252.074.464.2.639.378s.304.42.389.728c.083.308.126.699.126 1.174v.236c0 .074-.004.159-.011.257h-3.533c0 .405.036.73.109.974.074.245.182.432.322.561.14.13.313.216.521.257.206.042.447.063.72.063.309 0 .589-.021.842-.063a9.3 9.3 0 0 0 .747-.157l.083.62h-.001zm-.565-2.831c0-.342-.03-.623-.09-.839a1.19 1.19 0 0 0-.259-.508.862.862 0 0 0-.411-.252 2.002 2.002 0 0 0-.547-.069c-.21 0-.406.025-.584.074a1.022 1.022 0 0 0-.458.263 1.311 1.311 0 0 0-.3.508 2.896 2.896 0 0 0-.131.824h2.779l.001-.001zm4.105-1.468a5.48 5.48 0 0 1 .871-.613c.273-.15.563-.226.87-.226.182 0 .346.015.493.047.147.032.294.082.44.152l-.178.786a1.673 1.673 0 0 0-.404-.178 1.761 1.761 0 0 0-.498-.064c-.119 0-.234.016-.346.048a1.88 1.88 0 0 0-.352.142c-.122.062-.25.14-.382.23-.133.09-.283.2-.451.325v3.167h1.762v.63h-4.016v-.63h1.436v-3.88h-1.373v-.629h2.065l.063.692zm12.904-3.293h.786l-3.828 8.913h-.796l3.838-8.913z"/>
        <path fill-rule="evenodd" clip-rule="evenodd" d="m29.914 34.771 13.538 24.79h-8.744L19.03 30.895l8.984-3.671L7.727 14.136l-.013 24.147 7.917-5.52 3.735 6.79L1.73 51.848 0 53.055.029 0l44.588 28.763-14.703 6.008z"/>
        <path d="M54.564 32.657h2.663c.879 0 1.615-.317 2.2-.957.584-.639.88-2.047.88-4.228 0-2.176-.296-3.584-.88-4.229-.585-.644-1.32-.966-2.2-.966h-2.663v10.38zm-4.174 8.228h-.133V21.969l3.607-1.707h3.46c2.145 0 3.916.704 5.31 2.116 1.414 1.408 2.117 3.106 2.117 5.094 0 1.993-.694 3.69-2.084 5.094a7.448 7.448 0 0 1-.82.727l4.175 5.752-4.15 1.84h.004l-4.496-6.21h-2.816v4.228l-4.173 1.983v-.001zm22.722 0c-1.781 0-3.29-.547-4.533-1.647-1.246-1.105-1.872-2.461-1.872-4.072V27.37l3.897-1.864h.133v11.54c0 .575.23 1.049.686 1.413.455.363 1.022.547 1.698.547.672 0 1.233-.184 1.688-.552.451-.373.677-.837.677-1.395v-9.69l3.897-1.864h.133v9.672c0 1.629-.63 2.986-1.887 4.073-1.26 1.09-2.765 1.633-4.518 1.633zM85.59 37.06c0 .558.225 1.022.676 1.395.452.368 1.012.552 1.685.552.667 0 1.2-.184 1.587-.547.386-.363.58-.838.58-1.413v-7.703c0-.575-.194-1.05-.58-1.413-.387-.363-.92-.548-1.587-.548-.673 0-1.233.184-1.684.553-.451.373-.677.838-.677 1.394v7.73zm6.92 2.191c-1.274 1.09-2.797 1.634-4.56 1.634-1.762 0-3.266-.548-4.509-1.647-1.256-1.105-1.882-2.457-1.882-4.059V21.845l3.898-1.859h.133v6.166c.694-.428 1.481-.644 2.365-.644 1.799 0 3.322.547 4.578 1.648 1.26 1.094 1.89 2.452 1.89 4.071v3.953c0 1.62-.639 2.978-1.913 4.073zm14.444-.018c-1.275 1.1-2.788 1.65-4.542 1.65-1.752 0-3.276-.547-4.573-1.646-1.299-1.105-1.947-2.457-1.947-4.059v-3.966c0-1.63.648-2.986 1.947-4.073 1.297-1.09 2.816-1.633 4.564-1.633 1.748 0 3.262.57 4.537 1.712 1.275 1.14 1.914 2.498 1.914 4.063v.428l-8.655 4.077v1.343c0 .58.207 1.036.617 1.363.446.345.971.515 1.569.515.603 0 1.128-.175 1.587-.524.391-.313.59-.76.59-1.33v-.833l4.169-1.95h.138v.74c0 1.648-.64 3.019-1.914 4.123h-.001zm-6.755-5.582 4.363-2.038v-2.342c0-.58-.207-1.04-.617-1.366a2.493 2.493 0 0 0-1.568-.52c-.603 0-1.128.174-1.588.524-.391.317-.589.763-.589 1.338v4.404h-.001zm10.385 7.234h-.133v-9.672c0-1.63.63-2.987 1.887-4.073 1.261-1.09 2.765-1.633 4.518-1.633 1.782 0 3.29.547 4.533 1.648 1.246 1.104 1.872 2.46 1.872 4.071v7.796l-3.897 1.863h-.133v-11.54c0-.576-.231-1.05-.686-1.413-.456-.364-1.022-.548-1.694-.548-.676 0-1.237.184-1.693.553-.451.373-.677.838-.677 1.394v9.69l-3.897 1.864zm19.335 0c-1.831 0-3.303-.502-4.426-1.51a5.16 5.16 0 0 1-1.647-2.802l3.722-1.735h.143v1.56c0 .833.206 1.472.63 1.91.446.464.98.7 1.592.7.57 0 1.058-.199 1.463-.595.372-.372.561-1.035.561-2.001 0-1.008-.272-1.731-.819-2.163-.372-.308-.87-.483-1.486-.524-1.449-.12-2.594-.451-3.447-1.004-1.081-.685-1.619-1.693-1.619-3.028 0-1.283.525-2.3 1.574-3.055 1.049-.754 2.351-1.131 3.906-1.131 1.427 0 2.605.437 3.538 1.306a4.75 4.75 0 0 1 1.403 2.273l-3.442 1.666h-.133V29.45c0-.607-.12-1.086-.359-1.435-.29-.419-.63-.63-1.036-.63a1.23 1.23 0 0 0-1.03.501c-.263.331-.391.888-.391 1.675 0 .92.188 1.536.562 1.85.28.234.778.377 1.49.419 1.827.129 3.162.524 3.999 1.191.879.709 1.32 1.634 1.32 2.77 0 1.5-.584 2.72-1.753 3.664-1.182.953-2.618 1.43-4.316 1.43h.001zM144.196 40.608V21.956l4.174-1.97h.133v18.608h8.228v.134l-.902 1.882h-11.633zm17.498-2.116c.446.345.981.515 1.598.515.621 0 1.159-.175 1.615-.529.391-.313.589-.759.589-1.334v-7.896c0-.576-.207-1.027-.616-1.349-.446-.345-.98-.515-1.597-.515-.621 0-1.159.175-1.616.53-.391.312-.588.76-.588 1.334v7.897c0 .575.207 1.026.616 1.348l-.001-.001zm6.162.76c-1.297 1.09-2.821 1.633-4.574 1.633-1.757 0-3.276-.548-4.564-1.647-1.298-1.105-1.947-2.457-1.947-4.059v-3.966c0-1.638.64-2.996 1.919-4.073 1.293-1.09 2.825-1.633 4.61-1.633 1.79 0 3.318.547 4.583 1.647 1.28 1.105 1.919 2.457 1.919 4.059v3.966c0 1.62-.649 2.978-1.947 4.073h.001zm7.505-2.192c0 .558.225 1.022.676 1.395.451.368 1.012.552 1.684.552.667 0 1.201-.184 1.587-.547.386-.363.58-.838.58-1.413v-7.703c0-.575-.194-1.05-.58-1.413-.387-.364-.92-.548-1.587-.548-.672 0-1.233.184-1.684.553-.451.373-.676.838-.676 1.394v7.73zm-3.898 9.346h-.133V31.212c0-1.592.626-2.945 1.882-4.063 1.242-1.095 2.746-1.642 4.509-1.642 1.762 0 3.285.543 4.56 1.633 1.275 1.096 1.914 2.453 1.914 4.073v3.953c0 1.619-.63 2.976-1.891 4.072-1.256 1.1-2.779 1.647-4.578 1.647-.883 0-1.67-.216-2.365-.645v4.307l-3.897 1.859h-.001zm25.262-7.173c-1.274 1.1-2.788 1.65-4.541 1.65-1.753 0-3.277-.546-4.574-1.646-1.298-1.105-1.947-2.457-1.947-4.059v-3.966c0-1.63.649-2.986 1.947-4.073 1.297-1.09 2.816-1.633 4.564-1.633 1.749 0 3.262.57 4.538 1.712 1.274 1.141 1.914 2.498 1.914 4.063v.428l-8.655 4.077v1.343c0 .58.207 1.036.616 1.363.446.345.972.515 1.57.515.603 0 1.127-.175 1.587-.524.391-.313.589-.76.589-1.33v-.833l4.169-1.95h.138v.74c0 1.648-.639 3.019-1.914 4.123h-.001zm-6.754-5.582 4.362-2.038v-2.342c0-.58-.207-1.04-.616-1.367a2.496 2.496 0 0 0-1.569-.52c-.603 0-1.127.175-1.588.525-.391.317-.588.763-.588 1.338v4.404h-.001zm14.867 7.234c-1.831 0-3.303-.502-4.427-1.51a5.165 5.165 0 0 1-1.647-2.802l3.722-1.735h.143v1.56c0 .833.207 1.472.63 1.91.446.464.981.7 1.592.7.571 0 1.059-.199 1.463-.595.373-.372.562-1.035.562-2.001 0-1.008-.272-1.731-.819-2.163-.373-.308-.87-.483-1.486-.524-1.449-.12-2.595-.451-3.447-1.004-1.081-.685-1.619-1.693-1.619-3.027 0-1.284.524-2.301 1.573-3.055 1.049-.755 2.352-1.132 3.907-1.132 1.426 0 2.605.437 3.538 1.306a4.758 4.758 0 0 1 1.403 2.273l-3.442 1.666h-.133v-1.303c0-.607-.12-1.086-.359-1.436-.29-.418-.63-.63-1.036-.63a1.23 1.23 0 0 0-1.03.502c-.263.331-.391.888-.391 1.675 0 .92.188 1.536.561 1.85.281.235.778.377 1.491.419 1.827.129 3.161.524 3.999 1.191.879.71 1.32 1.634 1.32 2.77 0 1.5-.585 2.72-1.753 3.664-1.182.953-2.618 1.43-4.316 1.43h.001z"/>
    </g>
    <defs>
        <clipPath id="qacifq1a4a">
            <path fill="#fff" d="M0 0h328.404v59.562H0z"/>
        </clipPath>
    </defs>
</svg>
