<?xml version="1.0" encoding="UTF-8"?>
<!DOCTYPE svg PUBLIC "-//W3C//DTD SVG 1.1//EN" "http://www.w3.org/Graphics/SVG/1.1/DTD/svg11.dtd">
<!-- Creator: CorelDRAW -->
<svg xmlns="http://www.w3.org/2000/svg" xml:space="preserve" width="40.7154mm" height="54.3542mm" version="1.1" style="shape-rendering:geometricPrecision; text-rendering:geometricPrecision; image-rendering:optimizeQuality; fill-rule:evenodd; clip-rule:evenodd"
viewBox="0 0 534.33 713.33"
 xmlns:xlink="http://www.w3.org/1999/xlink"
 xmlns:xodm="http://www.corel.com/coreldraw/odm/2003">
 <defs>
  <style type="text/css">
   <![CDATA[
    .fil1 {fill:#F58634}
    .fil4 {fill:#EF4B37}
    .fil2 {fill:#ED3237}
    .fil3 {fill:#AA2C2E}
    .fil0 {fill:url(#id0)}
   ]]>
  </style>
  <linearGradient id="id0" gradientUnits="userSpaceOnUse" x1="110.83" y1="473.79" x2="317.55" y2="110.85">
   <stop offset="0" style="stop-opacity:1; stop-color:#C52F33"/>
   <stop offset="1" style="stop-opacity:1; stop-color:#F58634"/>
  </linearGradient>
 </defs>
 <g id="Camada_x0020_1">
  <metadata id="CorelCorpID_0Corel-Layer"/>
  <g id="_2154555225312">
   <polygon class="fil0" points="358.25,416.42 520.38,713.33 415.67,713.33 227.91,370 335.51,326.03 92.54,169.29 92.38,458.49 187.2,392.38 231.93,473.69 20.73,620.94 -0,635.39 0.35,0 534.33,344.47 "/>
   <polygon class="fil1" points="0.18,305.94 92.54,169.29 0.35,0 "/>
   <polygon class="fil2" points="92.38,458.49 0.13,400.71 92.44,339.33 "/>
   <polygon class="fil3" points="-0,635.39 92.38,458.49 120.31,439.02 "/>
   <polygon class="fil2" points="120.31,439.02 117.07,553.77 160.05,523.81 "/>
   <polygon class="fil3" points="231.93,473.69 152.59,416.51 187.2,392.38 "/>
   <polygon class="fil1" points="358.25,416.42 227.91,370 272.89,452.25 "/>
   <polygon class="fil3" points="415.67,713.33 493.05,663.27 520.38,713.33 "/>
   <polygon class="fil4" points="395.96,485.48 345.56,585.12 433.36,553.97 "/>
  </g>
 </g>
</svg>
