<svg viewBox="0 0 200 36">
    <g clip-path="url(#ksgum97axa)">
        <path d="m132.267 19.91 2.446-1.36v.463l-1.999 1.119 1.999 1.131v.463l-2.446-1.373v-.443zm65.287 1.353 1.999-1.112-1.999-1.138v-.462L200 19.923v.444l-2.446 1.36v-.463z" fill="#DA5734"/>
        <path d="M135.681 21.48c.187.046.367.082.54.107.172.025.358.038.558.038.379 0 .657-.069.834-.207a.673.673 0 0 0 .265-.56.785.785 0 0 0-.042-.272.576.576 0 0 0-.16-.222 1.597 1.597 0 0 0-.325-.22 15.196 15.196 0 0 0-.54-.269 8.277 8.277 0 0 1-.577-.288 1.654 1.654 0 0 1-.374-.273.809.809 0 0 1-.198-.32 1.371 1.371 0 0 1-.058-.418c0-.165.03-.315.09-.45a.884.884 0 0 1 .276-.346 1.41 1.41 0 0 1 .473-.225c.192-.055.423-.082.692-.082a3.514 3.514 0 0 1 1.011.145l-.064.387a5.599 5.599 0 0 0-.451-.092 3.279 3.279 0 0 0-.51-.035c-.188 0-.346.016-.473.048a.915.915 0 0 0-.317.134.521.521 0 0 0-.183.21.628.628 0 0 0-.057.268c0 .097.012.182.038.256a.52.52 0 0 0 .154.216c.077.07.181.141.313.215.133.074.308.16.526.257.243.114.444.216.601.304.159.09.287.182.384.28a.818.818 0 0 1 .209.322c.04.119.06.258.06.419 0 .186-.033.355-.102.507a1 1 0 0 1-.301.383 1.481 1.481 0 0 1-.499.244c-.2.059-.436.089-.704.089a3.79 3.79 0 0 1-.583-.043 4.697 4.697 0 0 1-.557-.122l.051-.387v.001zm6.096-1.09c0 .325-.033.594-.099.807a1.228 1.228 0 0 1-.28.507.996.996 0 0 1-.439.263 2.08 2.08 0 0 1-.584.076c-.216 0-.41-.024-.58-.073a.955.955 0 0 1-.43-.253 1.21 1.21 0 0 1-.27-.498 2.83 2.83 0 0 1-.096-.805c0-.329.033-.6.099-.81.065-.212.158-.38.279-.505.122-.124.269-.212.44-.263.173-.05.364-.076.577-.076.217 0 .41.023.58.07.169.046.314.13.433.253.12.122.21.288.274.498.064.209.096.478.096.808zm-.498.019c0-.266-.02-.48-.061-.644a.923.923 0 0 0-.177-.38.56.56 0 0 0-.281-.184 1.387 1.387 0 0 0-.378-.047 1.35 1.35 0 0 0-.371.047.55.55 0 0 0-.279.181.92.92 0 0 0-.173.377 2.693 2.693 0 0 0-.061.637c0 .262.02.476.061.64.04.165.1.293.176.384.077.09.169.152.279.184.108.031.234.047.374.047.142 0 .268-.016.378-.047a.55.55 0 0 0 .279-.181.907.907 0 0 0 .173-.377c.041-.163.061-.375.061-.637zm2.111-1.18h-1.015v-.38h1.015v-.512c0-.195.026-.364.077-.507a.875.875 0 0 1 .616-.57c.155-.047.34-.07.552-.07.124 0 .24.005.349.016.108.01.212.026.309.047l-.057.374a2.134 2.134 0 0 0-.272-.034c-.097-.007-.2-.01-.312-.01-.252 0-.443.057-.571.171-.128.114-.192.3-.192.558v.539h1.328v.38h-1.328v2.725h-.498v-2.725l-.001-.001zm3.28-.38v-1.045l.498-.076v1.122h1.468v.38h-1.468v1.736c0 .114.011.212.032.295.021.082.06.15.119.202a.54.54 0 0 0 .231.118c.096.025.216.038.362.038.167 0 .311-.014.433-.041.121-.028.215-.052.278-.073l.051.367a4.068 4.068 0 0 1-.341.086 2.543 2.543 0 0 1-.527.048c-.213 0-.392-.018-.536-.055a.831.831 0 0 1-.352-.17.65.65 0 0 1-.191-.29 1.287 1.287 0 0 1-.058-.405V19.23h-.894v-.38h.895zm2.297 0h.485l.323 1.82a10.704 10.704 0 0 1 .133.9h.019l.061-.286c.019-.085.04-.178.061-.279l.338-1.477h.588l.338 1.477a3.7 3.7 0 0 1 .064.266l.058.299h.019l.06-.454c.02-.141.045-.29.075-.446l.327-1.82h.473l-.602 3.106h-.652l-.339-1.477a6.644 6.644 0 0 0-.057-.257 3.544 3.544 0 0 1-.058-.282h-.019c-.017.098-.034.187-.05.27l-.058.27-.339 1.476h-.65l-.598-3.105zm5.827.913c0-.194-.059-.34-.175-.437-.117-.097-.299-.145-.546-.145a4.13 4.13 0 0 0-.965.114l-.044-.375a4.482 4.482 0 0 1 1.092-.132c.2 0 .372.02.517.06.144.04.262.1.354.18.092.08.158.18.201.299.043.118.064.256.064.412v2.218h-.415l-.032-.298a4.508 4.508 0 0 1-.553.253 1.68 1.68 0 0 1-.603.108c-.281 0-.511-.072-.69-.215-.179-.144-.268-.368-.268-.672 0-.165.027-.31.079-.434a.74.74 0 0 1 .275-.32 1.43 1.43 0 0 1 .514-.2c.213-.044.477-.066.792-.066h.402v-.349h.001zm-.383.698c-.243 0-.442.012-.597.037-.156.026-.28.065-.374.118a.445.445 0 0 0-.195.2.677.677 0 0 0-.054.278c0 .195.053.334.159.418.107.085.252.127.434.127.175 0 .339-.028.492-.083.153-.056.326-.139.517-.246v-.85h-.383.001zm3.049-1.192c.188-.156.364-.28.531-.37.166-.091.342-.137.53-.137a1.247 1.247 0 0 1 .568.12l-.109.476a1.014 1.014 0 0 0-.549-.146.794.794 0 0 0-.211.028 1.157 1.157 0 0 0-.214.086 2.269 2.269 0 0 0-.233.14c-.081.054-.172.12-.274.196v1.914h1.073v.38h-2.446v-.38h.875V19.23h-.837v-.38h1.258l.038.418zm4.698 2.599a3.965 3.965 0 0 1-1.112.152c-.217 0-.414-.021-.59-.064a.986.986 0 0 1-.45-.234 1.087 1.087 0 0 1-.284-.485c-.066-.209-.099-.483-.099-.82 0-.33.034-.6.102-.812.068-.21.165-.38.291-.504a1.04 1.04 0 0 1 .45-.263c.174-.05.368-.076.581-.076.2 0 .377.022.53.067a.88.88 0 0 1 .389.228.976.976 0 0 1 .237.44c.051.186.077.423.077.71v.142c0 .045-.002.096-.007.156h-2.152c0 .245.022.441.067.589.045.148.111.26.196.339.086.078.191.13.318.155.125.025.272.038.438.038.188 0 .358-.013.513-.038.153-.026.304-.057.454-.095l.051.374zm-.345-1.712c0-.206-.018-.376-.054-.507a.723.723 0 0 0-.158-.307.526.526 0 0 0-.25-.152 1.237 1.237 0 0 0-.334-.041c-.127 0-.246.015-.355.044a.621.621 0 0 0-.279.159.799.799 0 0 0-.183.307 1.779 1.779 0 0 0-.08.498h1.693zm1.389-2.604h2.472v.405H163.7v1.521h1.826v.393H163.7v1.68h1.974v.405h-2.472V17.55zm3.357 1.3h.409l.038.329c.17-.114.351-.208.543-.282.191-.075.389-.111.594-.111.293 0 .521.08.683.24.162.162.242.423.242.786v2.142h-.497v-2.059c0-.266-.052-.45-.157-.551a.556.556 0 0 0-.405-.152c-.153 0-.31.031-.469.095-.16.063-.321.154-.482.272v2.396h-.498v-3.105h-.001zm6.262.322-.575.045c.06.063.109.143.147.24.038.098.058.23.058.4 0 .397-.106.68-.316.852-.211.171-.527.257-.949.257-.127 0-.23-.007-.306-.022a.908.908 0 0 1-.211-.066.528.528 0 0 0-.146.136.25.25 0 0 0-.029.234.211.211 0 0 0 .067.083.567.567 0 0 0 .146.079c.064.025.149.048.256.07.179.037.358.072.54.104.181.031.339.062.475.092.12.025.224.058.314.098a.593.593 0 0 1 .341.355c.028.078.042.17.042.276a.957.957 0 0 1-.08.396.755.755 0 0 1-.259.31 1.395 1.395 0 0 1-.466.207c-.192.05-.424.076-.696.076a3.04 3.04 0 0 1-.661-.06 1.255 1.255 0 0 1-.431-.175.649.649 0 0 1-.236-.279.925.925 0 0 1-.019-.652.774.774 0 0 1 .133-.222.963.963 0 0 1 .189-.165c.07-.046.141-.087.214-.12a.711.711 0 0 1-.275-.19.447.447 0 0 1-.096-.299c0-.102.028-.192.084-.273a.916.916 0 0 1 .223-.222.914.914 0 0 1-.252-.32c-.065-.132-.098-.317-.098-.554 0-.393.105-.675.315-.846.211-.171.525-.257.942-.257.141 0 .263.009.368.026.104.017.192.038.264.063h.984v.323h-.001zm-1.092 2.846a36.008 36.008 0 0 0-.428-.08l-.498-.091a1.27 1.27 0 0 0-.383.231.494.494 0 0 0-.16.39c0 .088.014.167.041.237.028.07.077.129.147.178a.83.83 0 0 0 .284.114c.119.027.273.041.46.041.191 0 .351-.017.479-.05a.974.974 0 0 0 .306-.13.443.443 0 0 0 .163-.19.563.563 0 0 0 .048-.226.353.353 0 0 0-.108-.275c-.073-.066-.19-.116-.352-.15h.001zm.236-2.155c0-.14-.014-.258-.044-.355a.5.5 0 0 0-.141-.231.566.566 0 0 0-.242-.124 1.38 1.38 0 0 0-.345-.038c-.136 0-.252.012-.348.035a.505.505 0 0 0-.237.123.511.511 0 0 0-.134.229 1.259 1.259 0 0 0-.041.354c0 .144.013.263.041.359a.544.544 0 0 0 .134.234.49.49 0 0 0 .24.127c.097.023.215.034.351.034.132 0 .247-.01.345-.034a.512.512 0 0 0 .239-.124.534.534 0 0 0 .137-.231c.03-.095.045-.215.045-.358zm1.346 1.711h1.277V19.23h-1.246v-.38h1.744v2.725h.957v.38h-2.732v-.38zm1.87-3.764a.879.879 0 0 1-.012.159.185.185 0 0 1-.055.101.237.237 0 0 1-.112.054.781.781 0 0 1-.172.015.773.773 0 0 1-.175-.015.264.264 0 0 1-.112-.054.177.177 0 0 1-.058-.102.875.875 0 0 1-.012-.158c0-.064.004-.116.012-.155a.192.192 0 0 1 .058-.102.24.24 0 0 1 .112-.057.767.767 0 0 1 .175-.016c.068 0 .126.006.172.016.047.011.085.03.112.057a.2.2 0 0 1 .055.102.82.82 0 0 1 .012.155zm1.658 1.04h.409l.038.329a2.75 2.75 0 0 1 .543-.282c.192-.075.39-.111.594-.111.294 0 .522.08.683.24.162.162.243.423.243.786v2.142h-.498v-2.059c0-.266-.052-.45-.156-.551a.559.559 0 0 0-.406-.152c-.153 0-.309.031-.469.095-.16.063-.32.154-.482.272v2.396h-.498v-3.105h-.001zm5.879 3.016a3.98 3.98 0 0 1-1.112.152c-.217 0-.414-.021-.59-.064a.991.991 0 0 1-.45-.234 1.087 1.087 0 0 1-.284-.485c-.066-.209-.099-.483-.099-.82 0-.33.034-.6.103-.812.067-.21.164-.38.29-.504.126-.124.276-.212.45-.263.175-.05.369-.076.581-.076.2 0 .377.022.53.067.154.044.283.12.39.228a.984.984 0 0 1 .236.44c.051.186.077.423.077.71v.142c0 .045-.002.096-.007.156h-2.151c0 .245.022.441.066.589.045.148.111.26.196.339.086.078.191.13.318.155.125.025.272.038.438.038.188 0 .359-.013.513-.038.153-.026.304-.057.455-.095l.051.374h-.001zm-.345-1.712c0-.206-.018-.376-.054-.507a.723.723 0 0 0-.158-.307.522.522 0 0 0-.25-.152 1.224 1.224 0 0 0-.333-.041c-.128 0-.247.015-.356.044a.627.627 0 0 0-.279.159.799.799 0 0 0-.183.307 1.783 1.783 0 0 0-.079.498h1.692zm3.772 1.712a3.965 3.965 0 0 1-1.112.152c-.217 0-.414-.021-.59-.064a.986.986 0 0 1-.45-.234 1.087 1.087 0 0 1-.284-.485c-.066-.209-.099-.483-.099-.82 0-.33.034-.6.102-.812.068-.21.165-.38.291-.504a1.04 1.04 0 0 1 .45-.263c.174-.05.368-.076.581-.076.2 0 .377.022.53.067.153.044.283.12.39.228a.984.984 0 0 1 .236.44c.051.186.077.423.077.71v.142c0 .045-.002.096-.007.156h-2.152c0 .245.023.441.067.589.045.148.111.26.196.339.086.078.191.13.318.155.125.025.272.038.438.038.188 0 .358-.013.513-.038.153-.026.304-.057.454-.095l.051.374zm-.345-1.712c0-.206-.018-.376-.054-.507a.723.723 0 0 0-.158-.307.522.522 0 0 0-.25-.152 1.232 1.232 0 0 0-.334-.041c-.127 0-.246.015-.355.044a.627.627 0 0 0-.279.159.799.799 0 0 0-.183.307 1.779 1.779 0 0 0-.08.498h1.693zm2.501-.887c.187-.156.363-.28.53-.37.166-.091.343-.137.53-.137a1.247 1.247 0 0 1 .568.12l-.108.476a1.038 1.038 0 0 0-.246-.108 1.093 1.093 0 0 0-.304-.038.794.794 0 0 0-.211.028 1.157 1.157 0 0 0-.214.086 2.269 2.269 0 0 0-.233.14c-.08.054-.172.12-.274.196v1.914h1.073v.38h-2.446v-.38h.875V19.23h-.837v-.38h1.258l.039.418zm7.858-1.99h.479l-2.331 5.387h-.486l2.338-5.387z" fill="#4B4B4D"/>
        <path fill-rule="evenodd" clip-rule="evenodd" d="M18.218 21.016 26.462 36h-5.325L11.59 18.672l5.472-2.218-12.355-7.91-.008 14.595 4.821-3.337 2.275 4.104-10.74 7.431-1.054.73L.017 0l27.155 17.384-8.954 3.632z" fill="url(#7k2kyiapyb)"/>
        <path fill-rule="evenodd" clip-rule="evenodd" d="m.01 15.44 4.696-6.896L.018 0 .009 15.44z" fill="#F58634"/>
        <path fill-rule="evenodd" clip-rule="evenodd" d="M4.698 23.14.007 20.222 4.7 17.125l-.003 6.014z" fill="#ED3237"/>
        <path fill-rule="evenodd" clip-rule="evenodd" d="m0 32.067 4.698-8.928 1.42-.983L0 32.067z" fill="#AA2C2E"/>
        <path fill-rule="evenodd" clip-rule="evenodd" d="m6.118 22.156-.164 5.792 2.185-1.513-2.02-4.279z" fill="#ED3237"/>
        <path fill-rule="evenodd" clip-rule="evenodd" d="M11.794 23.906 7.759 21.02l1.76-1.218 2.275 4.104z" fill="#AA2C2E"/>
        <path fill-rule="evenodd" clip-rule="evenodd" d="m18.218 21.016-6.629-2.344 2.288 4.152 4.34-1.808z" fill="#F58634"/>
        <path fill-rule="evenodd" clip-rule="evenodd" d="m21.137 36 3.935-2.526L26.462 36h-5.325z" fill="#AA2C2E"/>
        <path fill-rule="evenodd" clip-rule="evenodd" d="m20.135 24.501-2.563 5.029 4.465-1.572-1.902-3.457z" fill="#EF4B37"/>
        <path d="M33.23 19.739h1.622c.535 0 .983-.192 1.34-.579.355-.386.535-1.237.535-2.555 0-1.316-.18-2.167-.536-2.556a1.74 1.74 0 0 0-1.34-.585H33.23v6.275zm-2.542 4.972h-.082V13.278l2.197-1.032h2.108c1.306 0 2.384.426 3.234 1.28.86.85 1.289 1.877 1.289 3.079 0 1.204-.423 2.23-1.27 3.078a4.525 4.525 0 0 1-.499.44l2.542 3.476-2.527 1.113h.002l-2.737-3.754H33.23v2.555l-2.542 1.199zm13.837 0c-1.084 0-2.003-.33-2.76-.995-.76-.668-1.14-1.488-1.14-2.461v-4.712l2.373-1.126h.081v6.975c0 .347.14.634.418.854.277.22.622.33 1.034.33.41 0 .75-.11 1.028-.333.275-.226.412-.506.412-.843v-5.857l2.373-1.127h.082v5.846c0 .985-.384 1.805-1.15 2.462-.767.659-1.684.987-2.752.987h.001zm7.6-2.31c0 .336.137.617.411.842.275.223.617.334 1.026.334.407 0 .732-.111.967-.33.235-.22.353-.507.353-.855v-4.656a1.12 1.12 0 0 0-.353-.854c-.236-.22-.561-.33-.967-.33-.41 0-.75.11-1.026.333a1.048 1.048 0 0 0-.412.843V22.4zm4.214 1.323c-.776.66-1.704.988-2.777.988-1.073 0-1.99-.331-2.746-.996-.765-.667-1.146-1.485-1.146-2.453v-8.06l2.373-1.123h.081v3.727c.423-.26.903-.39 1.44-.39 1.096 0 2.024.331 2.789.996.768.662 1.151 1.483 1.151 2.461v2.39c0 .979-.389 1.799-1.165 2.461zm8.796-.01c-.776.664-1.698.997-2.766.997-1.067 0-1.995-.33-2.785-.995-.79-.668-1.186-1.485-1.186-2.453v-2.397c0-.985.395-1.805 1.186-2.462.79-.66 1.715-.987 2.78-.987 1.065 0 1.986.345 2.763 1.034.776.69 1.166 1.51 1.166 2.456v.259l-5.271 2.464v.812c0 .35.126.626.375.824.272.208.592.311.956.311.367 0 .687-.106.966-.317.239-.189.36-.459.36-.804v-.503l2.538-1.18h.084v.449c0 .996-.39 1.824-1.165 2.492zm-4.113-3.374 2.657-1.232v-1.416c0-.35-.127-.628-.376-.826a1.527 1.527 0 0 0-.955-.314c-.367 0-.687.106-.967.317-.238.192-.359.462-.359.81v2.66zm6.324 4.372h-.081v-5.846c0-.985.383-1.805 1.149-2.462.768-.659 1.684-.987 2.752-.987 1.085 0 2.003.331 2.76.996.76.668 1.14 1.488 1.14 2.461v4.712l-2.373 1.126h-.081v-6.975c0-.348-.14-.634-.418-.854-.277-.22-.622-.331-1.031-.331-.412 0-.754.111-1.032.334a1.048 1.048 0 0 0-.412.843v5.857l-2.373 1.126zm11.775 0c-1.115 0-2.012-.303-2.696-.912a3.115 3.115 0 0 1-1.003-1.694l2.267-1.049h.087V22c0 .503.126.89.384 1.154.271.281.597.423.97.423.347 0 .644-.12.89-.359.227-.225.342-.626.342-1.21 0-.609-.165-1.046-.499-1.307-.226-.186-.53-.292-.904-.317-.883-.072-1.58-.272-2.1-.606-.658-.415-.986-1.024-.986-1.83 0-.776.32-1.39.959-1.847.639-.456 1.432-.684 2.379-.684.868 0 1.586.265 2.154.79.426.39.71.848.855 1.374l-2.096 1.006h-.082V17.8c0-.367-.073-.656-.218-.868-.177-.252-.384-.38-.63-.38-.262 0-.472.1-.628.303-.16.2-.239.536-.239 1.012 0 .556.115.929.343 1.118.17.142.473.228.907.253 1.113.078 1.926.317 2.436.72.535.429.803.988.803 1.675 0 .907-.356 1.644-1.067 2.214-.72.576-1.594.865-2.628.865zM87.816 24.544V13.27l2.542-1.19h.081v11.246h5.01v.081l-.549 1.137h-7.084zm10.657-1.279c.271.209.597.311.972.311.38 0 .707-.105.984-.32.238-.188.359-.458.359-.806v-4.772c0-.348-.126-.62-.375-.815a1.551 1.551 0 0 0-.973-.311c-.378 0-.706.105-.984.32-.238.189-.358.459-.358.806v4.773c0 .348.126.62.375.815zm3.752.46c-.79.658-1.718.986-2.785.986-1.07 0-1.995-.33-2.78-.995-.79-.668-1.185-1.485-1.185-2.453v-2.397c0-.99.389-1.811 1.168-2.462.788-.659 1.72-.987 2.808-.987 1.09 0 2.02.33 2.791.996.779.667 1.168 1.485 1.168 2.453v2.397c0 .98-.395 1.8-1.185 2.462zm4.57-1.325c0 .337.138.617.412.843.275.222.617.334 1.026.334.407 0 .732-.112.967-.331.235-.22.353-.507.353-.854v-4.656a1.12 1.12 0 0 0-.353-.854c-.236-.22-.561-.331-.967-.331-.409 0-.751.111-1.026.334a1.05 1.05 0 0 0-.412.843V22.4zm-2.373 5.649h-.081v-9.184c0-.962.381-1.78 1.146-2.455.757-.662 1.673-.993 2.746-.993s2.001.328 2.777.987c.776.662 1.166 1.483 1.166 2.462v2.389c0 .978-.384 1.799-1.152 2.46-.765.666-1.692.996-2.788.996-.538 0-1.017-.13-1.44-.39v2.604l-2.373 1.123h-.001zm15.385-4.336c-.777.665-1.698.998-2.766.998-1.067 0-1.995-.331-2.785-.996-.791-.667-1.186-1.485-1.186-2.453v-2.397c0-.985.395-1.805 1.186-2.461.79-.66 1.714-.988 2.779-.988s1.987.345 2.763 1.035c.777.69 1.166 1.51 1.166 2.456v.258l-5.271 2.465v.812c0 .35.126.626.376.823.271.209.591.311.955.311.368 0 .687-.105.967-.317.238-.188.359-.458.359-.803v-.503l2.539-1.18h.084v.448c0 .996-.39 1.825-1.166 2.492zm-4.114-3.373 2.657-1.232v-1.416c0-.35-.126-.628-.376-.826a1.524 1.524 0 0 0-.955-.314c-.367 0-.686.105-.967.317-.238.192-.358.461-.358.809v2.662h-.001zm9.054 4.371c-1.115 0-2.011-.303-2.696-.912a3.118 3.118 0 0 1-1.003-1.694l2.267-1.048h.087V22c0 .503.126.89.384 1.154.272.28.597.422.97.422.347 0 .644-.119.89-.358.227-.226.343-.626.343-1.21 0-.61-.166-1.046-.499-1.307-.227-.186-.53-.292-.905-.317-.883-.073-1.58-.273-2.099-.607-.659-.414-.986-1.023-.986-1.83 0-.776.319-1.39.958-1.846.639-.456 1.432-.684 2.379-.684.869 0 1.586.264 2.155.79.425.389.708.847.854 1.373l-2.096 1.007h-.081V17.8c0-.367-.073-.657-.219-.868-.176-.253-.384-.381-.631-.381-.26 0-.471.1-.627.303-.16.2-.238.537-.238 1.013 0 .556.114.928.342 1.118.17.142.473.228.908.253 1.112.078 1.925.317 2.435.72.535.428.804.987.804 1.675 0 .906-.356 1.643-1.068 2.214-.72.575-1.594.864-2.628.864z" fill="#4B4B4D"/>
    </g>
    <defs>
        <linearGradient id="7k2kyiapyb" x1="5.636" y1="23.911" x2="16.028" y2="5.526" gradientUnits="userSpaceOnUse">
            <stop stop-color="#C52F33"/>
            <stop offset="1" stop-color="#F58634"/>
        </linearGradient>
        <clipPath id="ksgum97axa">
            <path fill="#fff" d="M0 0h200v36H0z"/>
        </clipPath>
    </defs>
</svg>
